<?xml version="1.0" encoding="utf-8"?>
<!-- Generator: Adobe Illustrator 21.1.0, SVG Export Plug-In . SVG Version: 6.00 Build 0)  -->
<svg version="1.1"
	 id="Layer_1" xmlns:cc="http://creativecommons.org/ns#" xmlns:dc="http://purl.org/dc/elements/1.1/" xmlns:rdf="http://www.w3.org/1999/02/22-rdf-syntax-ns#" xmlns:svg="http://www.w3.org/2000/svg"
	 xmlns="http://www.w3.org/2000/svg" xmlns:xlink="http://www.w3.org/1999/xlink" x="0px" y="0px" viewBox="0 0 93 30"
	 style="enable-background:new 0 0 93 30;" xml:space="preserve">
<style type="text/css">
	.st0{fill:#FFFFFF;}
	.st1{fill:#E93442;}
</style>
<path class="st0" d="M27.5,22.9c-0.6-0.1-1.2-0.2-1.8-0.2c-1,0-2,0.2-2.7,0.5c-0.1,0-0.1,0.1-0.1,0.2c0,0,0,0.1,0,0.1
	c0.1,0.2-0.1,0.5-0.7,0.6c-1,0.2-1.6,1.3-2,1.6c-0.4,0.4-1.6,0.7-1.5,0.4c0.1-0.2,0.7-0.8,1-1.4c0.3-0.6,0.6-0.7,0.9-1.3
	c0.1-0.2,0.5-0.7,0.6-1.2c0.1-0.4,0.1-1,0.1-1.2c0.1-0.3,0.4-1,0.4-1.4c0-0.2-0.9,0.3-1.4,0.3s-0.9-0.3-1.3-0.3
	c-0.5,0-0.8,0.4-1.3,0.3c-0.3,0-0.5-0.3-0.9-0.3c-0.6,0-1.4,0.4-2.9,0.3c-1.4,0-2.8-1.8-2.9-2.1c-0.2-0.3-0.5-0.3-0.8-0.1
	c-0.3,0.3-0.6,0.1-0.7-0.1c-0.2-0.3-0.7-1.3-1.5-1.5c-1.1-0.3-1.6,0.6-1.6,1.3c0.1,0.7,0.5,0.9,0.7,1.3c0.2,0.4,0.3,0.6,0.7,0.8
	c0.3,0.1,0.4,0.3,0.3,0.5c-0.1,0.2-0.4,0.2-0.6,0.3c-0.4,0-0.7-0.1-0.9-0.2c-0.2-0.2-0.4-0.4-0.7-0.7c-0.2-0.4-0.6-0.6-1.1-0.6
	C5,18.9,4.8,19,4.6,19c-0.7,0.4-1.6,0.6-2.5,0.6l-1,0c2,5.8,7.5,10,14,10C20.3,29.7,24.9,27,27.5,22.9"/>
<path d="M27.5,22.9c-0.6-0.1-1.2-0.2-1.8-0.2c-1,0-2,0.2-2.7,0.5c-0.1,0-0.1,0.1-0.1,0.2c0,0,0,0.1,0,0.1c0.1,0.2-0.1,0.5-0.7,0.7
	c-1,0.2-1.6,1.3-2,1.6c-0.4,0.4-1.6,0.7-1.5,0.4c0.1-0.2,0.7-0.8,1-1.4c0.3-0.6,0.6-0.7,0.9-1.3c0.1-0.2,0.5-0.7,0.6-1.2
	c0.1-0.4,0.1-1,0.1-1.2c0.1-0.3,0.4-1,0.4-1.4c0-0.2-0.9,0.3-1.4,0.3s-0.9-0.3-1.3-0.3c-0.5,0-0.8,0.4-1.3,0.3
	c-0.3,0-0.5-0.3-0.9-0.3c-0.6,0-1.4,0.4-2.9,0.3c-1.4,0-2.8-1.8-2.9-2.1c-0.2-0.3-0.5-0.3-0.8-0.1c-0.3,0.3-0.6,0.1-0.7-0.1
	c-0.2-0.3-0.7-1.3-1.5-1.5c-1.1-0.3-1.6,0.6-1.6,1.3c0.1,0.7,0.5,0.9,0.7,1.3c0.2,0.4,0.3,0.6,0.7,0.8c0.3,0.1,0.4,0.3,0.3,0.5
	c-0.1,0.2-0.4,0.2-0.6,0.3c-0.4,0-0.7-0.1-0.9-0.2c-0.2-0.2-0.4-0.4-0.7-0.7c-0.2-0.4-0.6-0.6-1.1-0.6C5,18.9,4.8,19,4.6,19
	c-0.7,0.4-1.6,0.6-2.5,0.6h-1c-0.5-1.5-0.8-3.1-0.8-4.7c0-8.2,6.6-14.8,14.8-14.8c8.2,0,14.8,6.6,14.8,14.8
	C29.9,17.9,29,20.6,27.5,22.9"/>
<path d="M18.3,21.6c0.1,0.1,0.2,0.3,0,0.6c-0.1,0.2-0.2,0.3-0.4,0.4c-0.2,0.2-0.6,0.4-1.2,0c-0.3-0.2-0.3-0.3-0.7-0.2
	c-0.3,0-0.4-0.3-0.3-0.5c0.1-0.2,0.5-0.4,1.1-0.1c0.2,0.1,0.6,0.4,1,0.2C18,21.9,18.1,21.8,18.3,21.6C18.3,21.6,18.3,21.6,18.3,21.6
	C18.3,21.6,18.3,21.6,18.3,21.6"/>
<path class="st1" d="M13.9,7.2c-1.7,0.1-1.9,0.3-2.2,0.6c-0.4,0.5-1-0.6-1-0.6C10.3,7.1,9.9,6.6,10.1,6c0.2-0.5,0.7-0.4,0.8-0.2
	c0.2,0.2,0.5,0.5,1,0.5c0.4,0,1-0.1,1.7-0.1c0.7,0,1.2,0.3,1.2,0.5C14.8,6.9,14.8,7.1,13.9,7.2 M15.7,4.4L15.7,4.4
	C15.7,4.4,15.7,4.3,15.7,4.4C15.7,4.3,15.7,4.3,15.7,4.4C16,4.1,16.5,4,17.1,3.9c0.2,0,0.3,0,0.5,0h0.1c0.9,0,1.7,0.4,1.7,0.8
	c0,0.4-0.8,0.8-1.7,0.8c-0.3,0-0.6-0.1-0.8-0.1c0,0-0.1,0-0.1-0.1c0,0,0-0.1,0.1-0.1c0.6-0.1,1-0.4,1-0.6c0-0.3-0.8-0.4-1.7-0.3
	C15.9,4.3,15.8,4.4,15.7,4.4 M23.4,11c-0.1,0.5-0.4,1.1-1.3,1.6c-0.1,0.1-0.2,0-0.1-0.1c0.4-0.6,0.4-0.7,0.5-1
	c0.1-0.3,0.2-0.8-0.1-1.8c-0.6-2-1.7-4.7-2.6-5.5c-0.8-0.8-2.3-1.1-3.6-0.7c-0.5,0.1-1.4,0.6-3.2,0.2C10,2.9,9.5,4.4,9.4,5.1
	C9.2,5.8,8.8,7.7,8.8,7.7c-0.1,0.8-0.3,2.1,4.5,3c2.2,0.4,2.3,1,2.4,1.4c0.2,0.7,0.5,1.2,0.8,1.4s0,0.4-0.4,0.4
	c-0.9,0.1-4.5-0.9-6.5-2.1c-1.7-1-1.7-2-1.3-2.8c-2.6-0.3-4.5,0.2-4.8,1.5c-0.6,2.1,4.6,5.6,10.5,7.4c6.2,1.9,12.5,0.6,13.3-3.3
	C27.4,12.9,25.9,11.6,23.4,11"/>
<g id="g3880">
	<path class="st0" d="M29.7,22.1h0.1l0.2,0.3h0.1L30,22.1c0.1,0,0.2-0.1,0.2-0.2c0-0.2-0.1-0.2-0.3-0.2h-0.3v0.8h0.1
		C29.7,22.5,29.7,22.1,29.7,22.1z M29.7,22.1v-0.2h0.2c0.1,0,0.2,0,0.2,0.1c0,0.1-0.1,0.1-0.2,0.1H29.7z"/>
	<path class="st0" d="M30.6,22.1c0,0.4-0.3,0.7-0.7,0.7s-0.7-0.3-0.7-0.7c0-0.4,0.3-0.7,0.7-0.7S30.6,21.7,30.6,22.1 M29.9,21.5
		c-0.3,0-0.6,0.3-0.6,0.6c0,0.3,0.3,0.6,0.6,0.6c0.3,0,0.6-0.3,0.6-0.6C30.5,21.8,30.2,21.5,29.9,21.5"/>
</g>
<path class="st0" d="M37.4,15.8c0-1.4,0-2.3-0.1-3.2h2.2l0.1,1.9h0.1c0.5-1.4,1.7-2.1,2.8-2.1c0.2,0,0.4,0,0.6,0.1v2.4
	c-0.2,0-0.5-0.1-0.8-0.1c-1.2,0-2.1,0.8-2.3,1.9c0,0.2-0.1,0.5-0.1,0.8v5.2h-2.6C37.4,22.7,37.4,15.8,37.4,15.8z"/>
<path class="st0" d="M46.1,18.3c0.1,1.8,1.5,2.6,3.1,2.6c1.2,0,2-0.2,2.8-0.5l0.4,1.8c-0.9,0.4-2.1,0.6-3.5,0.6
	c-3.3,0-5.2-2-5.2-5.1c0-2.8,1.7-5.4,4.9-5.4c3.3,0,4.4,2.7,4.4,4.9c0,0.5,0,0.9-0.1,1.1L46.1,18.3z M50.6,16.6
	c0-0.9-0.4-2.5-2.1-2.5c-1.6,0-2.2,1.4-2.3,2.5C46.1,16.6,50.6,16.6,50.6,16.6z"/>
<path class="st0" d="M61.5,18.3c0,0.3,0,0.5-0.1,0.7c-0.3,1.1-1.2,1.8-2.2,1.8c-1.6,0-2.5-1.4-2.5-3.2c0-1.9,0.9-3.3,2.6-3.3
	c1.2,0,2,0.8,2.2,1.8c0,0.2,0.1,0.5,0.1,0.7C61.5,16.8,61.5,18.3,61.5,18.3z M64,8.7L61.5,8v5.7h0c-0.5-0.7-1.5-1.3-2.8-1.3
	c-2.4,0-4.6,2-4.5,5.4c0,3.1,1.9,5.2,4.3,5.2c1.5,0,2.7-0.7,3.3-1.8h0l0.1,1.6h2.3c0-0.7-0.1-1.8-0.1-2.8V8.7z"/>
<path class="st0" d="M70.8,12.4c-0.8,0-1.5,0.2-2,0.6c-0.6,0.4-1.1,0.9-1.4,1.5h0V9.7l-1-0.3v13.3h1v-6.2c0-0.4,0-0.7,0.1-1
	c0.4-1.3,1.6-2.3,3.1-2.3c2.1,0,2.8,1.7,2.8,3.5v6h1v-6.1C74.3,12.8,71.7,12.4,70.8,12.4"/>
<path class="st0" d="M83.3,20.3c0,0.8,0,1.6,0.1,2.4h-0.9l-0.1-1.4h0c-0.5,0.8-1.6,1.7-3.2,1.7c-2,0-3-1.4-3-2.8
	c0-2.3,2.1-3.7,6.2-3.7v-0.3c0-1-0.2-3-2.6-3c-0.9,0-1.8,0.2-2.5,0.8l-0.3-0.7c0.9-0.6,2.1-0.9,3-0.9c2.9,0,3.5,2.2,3.5,4
	C83.3,16.4,83.3,20.3,83.3,20.3z M82.3,17.3c-2.2-0.1-5.1,0.3-5.1,2.7c0,1.5,1,2.1,2,2.1c1.7,0,2.6-1,3-2c0.1-0.2,0.1-0.4,0.1-0.6
	C82.3,19.5,82.3,17.3,82.3,17.3z"/>
<path class="st0" d="M87.3,10.4v2.2h2.9v0.8h-2.9V20c0,1.3,0.4,2.1,1.5,2.1c0.5,0,0.9-0.1,1.2-0.2l0.1,0.8c-0.3,0.1-0.8,0.2-1.4,0.2
	c-0.7,0-1.4-0.2-1.7-0.7c-0.5-0.5-0.6-1.4-0.6-2.4v-6.4h-1.7v-0.8h1.7v-1.9L87.3,10.4z"/>
<g id="use3884" transform="translate(61.7183,0.0205)">
	<g id="g3880_1_">
		<path class="st0" d="M91.4,22.2h0.1l0.2,0.3h0.1l-0.2-0.3c0.1,0,0.2-0.1,0.2-0.2c0-0.2-0.1-0.2-0.3-0.2h-0.3v0.8h0.1
			C91.4,22.5,91.4,22.2,91.4,22.2z M91.4,22.1v-0.2h0.2c0.1,0,0.2,0,0.2,0.1c0,0.1-0.1,0.1-0.2,0.1H91.4z"/>
		<path class="st0" d="M92.3,22.1c0,0.4-0.3,0.7-0.7,0.7s-0.7-0.3-0.7-0.7c0-0.4,0.3-0.7,0.7-0.7S92.3,21.7,92.3,22.1 M91.6,21.5
			c-0.3,0-0.6,0.3-0.6,0.6c0,0.3,0.3,0.6,0.6,0.6c0.3,0,0.6-0.3,0.6-0.6C92.2,21.8,91.9,21.5,91.6,21.5"/>
	</g>
</g>
</svg>
